:SAMPLES-PER-SECOND 30
:FULLY-SPECIFIED
:DEGREES
742
root  -12.5437 39.1419 25.485 144.833 84.0877 153.938
RightUpLeg  -14.415 0.505001 -9.97681
RightLeg  26.3709 1.96983 0.947445
RightFoot  -1.04593 -0.760118 8.34435
RightToes  5.82063e-011 0 -3.6325e-017
Spine  9.90573 -1.10801 -1.63541
Spine1  8.70435 -1.18058 -2.71774
HEad  -18.4451 51.1736 -29.344
LeftShoulder1  0.364996 2.45387 -28.6345
LeftArm  8.42118 2.89281 -46.2682
LeftForeArm  15.0443 -19.0885 -5.52694
LeftHand  -0.00598291 2.76314 -0.422433
RightShoulder  -0.316839 -4.50227 24.6171
RightArm  16.1992 -8.0876 47.9436
RightForeArm  3.80305 19.555 4.76653
RightHand  -0.22453 -0.688505 -5.51118
LeftUpLeg  6.7212 5.0617 -6.21879
LeftLeg  17.8274 -5.13832 -1.05624
LeftFoot  -13.3729 0.273566 10.8712
LeftToes  2.58842e-009 -1.78069e-010 3.24654e-012
743
root  -11.3672 39.0596 25.7203 141.121 83.6343 149.835
RightUpLeg  -13.8757 0.682362 -10.4034
RightLeg  14.5791 3.64041 0.32371
RightFoot  -1.08613 -0.826901 9.11312
RightToes  5.82063e-011 0 -3.6325e-017
Spine  10.1279 -0.423009 -2.72701
Spine1  7.65087 -0.643137 -1.67114
HEad  -18.024 52.163 -28.8921
LeftShoulder1  0.38114 2.39664 -28.2833
LeftArm  9.53503 2.03815 -46.8709
LeftForeArm  13.856 -20.5282 -4.92623
LeftHand  -0.016883 2.74151 0.0919913
RightShoulder  -0.343337 -4.57463 24.9951
RightArm  15.9716 -7.59208 47.475
RightForeArm  3.45165 18.8834 4.86103
RightHand  -0.345383 1.51337 -5.94193
LeftUpLeg  8.85154 6.05912 -5.5667
LeftLeg  16.8702 -6.53454 -1.77847
LeftFoot  -14.7444 0.407212 10.6954
LeftToes  2.58842e-009 -1.78069e-010 3.24654e-012
744
root  -10.1838 38.9419 25.9983 138.095 83.1824 146.239
RightUpLeg  -13.5225 -2.51414 -9.15165
RightLeg  4.60236 10.2868 -2.27398
RightFoot  -1.2602 -0.803078 8.98591
RightToes  5.82063e-011 0 -3.6325e-017
Spine  10.1406 0.505344 -4.10566
Spine1  6.80875 -0.0582044 0.105853
HEad  -23.4387 48.7725 -32.444
LeftShoulder1  0.4 2.35664 -28.7428
LeftArm  10.8037 1.19668 -46.6977
LeftForeArm  12.8953 -22.0591 -4.47963
LeftHand  -0.0232236 2.6831 0.385098
RightShoulder  -0.315532 -4.49823 24.6086
RightArm  14.4582 -7.85277 47.6573
RightForeArm  5.4668 18.38 4.74148
RightHand  -0.262224 1.68551 -4.45248
LeftUpLeg  10.774 7.07448 -4.66372
LeftLeg  16.0412 -8.12222 -2.67394
LeftFoot  -16.0666 0.531138 10.4778
LeftToes  2.58842e-009 -1.78069e-010 3.24654e-012
745
root  -8.89713 38.7749 26.1438 142.403 82.041 150.383
RightUpLeg  -12.9019 -6.46346 -7.96576
RightLeg  -1.01576 16.5018 -4.45029
RightFoot  -2.43336 -0.776637 9.75382
RightToes  5.82063e-011 0 -3.6325e-017
Spine  9.74842 0.580209 -3.78473
Spine1  6.97832 0.00744438 0.530527
HEad  -45.033 35.4402 -47.7889
LeftShoulder1  0.387125 2.40219 -29.0083
LeftArm  10.6953 0.612895 -46.6857
LeftForeArm  12.7757 -23.0407 -4.34427
LeftHand  -0.0291986 2.35578 0.6465
RightShoulder  -0.347815 -4.59941 24.6994
RightArm  13.7116 -7.85362 47.7212
RightForeArm  4.20049 17.3531 4.93483
RightHand  -0.33354 2.73096 -4.9855
LeftUpLeg  13.0486 7.22902 -3.85694
LeftLeg  15.5851 -9.77284 -2.90966
LeftFoot  -17.5367 0.675124 10.5006
LeftToes  2.58842e-009 -1.78069e-010 3.24654e-012
746
root  -7.51534 38.5492 26.1663 150.864 80.6699 158.895
RightUpLeg  -12.5311 -7.29312 -8.07935
RightLeg  0.0263574 15.1573 -2.8989
RightFoot  -1.26887 -0.951865 10.9523
RightToes  5.82063e-011 0 -3.6325e-017
Spine  8.83736 -0.164333 -1.45507
Spine1  8.15973 -0.344911 -0.579749
HEad  -47.0364 34.2644 -48.2032
LeftShoulder1  0.338003 2.53826 -28.8756
LeftArm  9.53043 0.350042 -47.1197
LeftForeArm  13.0045 -23.3029 -4.34351
LeftHand  -0.0489298 2.3728 1.42727
RightShoulder  -0.351001 -4.61068 24.6724
RightArm  13.453 -7.0718 47.9486
RightForeArm  5.12614 15.7876 5.2256
RightHand  -0.262462 1.92972 -4.34776
LeftUpLeg  15.1541 5.55049 -3.49788
LeftLeg  15.8876 -9.99549 -1.95649
LeftFoot  -19.5536 0.837866 9.99775
LeftToes  2.58842e-009 -1.78069e-010 3.24654e-012
747
root  -6.19617 38.3518 26.2276 159.799 79.4977 167.644
RightUpLeg  -13.505 -6.44151 -7.47088
RightLeg  4.98163 13.5472 -1.09295
RightFoot  7.04948 -1.45164 9.17406
RightToes  5.82063e-011 0 -3.6325e-017
Spine  8.5543 -0.680844 0.936564
Spine1  8.2489 -0.703886 -0.585005
HEad  -50.0849 32.1414 -49.5488
LeftShoulder1  0.377657 2.44321 -29.5026
LeftArm  9.08264 0.832799 -46.5971
LeftForeArm  12.59 -23.4419 -4.37685
LeftHand  -0.0537952 1.9789 1.49915
RightShoulder  -0.351188 -4.60729 24.7634
RightArm  13.6109 -6.7076 47.4485
RightForeArm  5.84908 14.5905 5.53284
RightHand  -0.173613 1.74145 -2.95738
LeftUpLeg  16.6615 2.20806 -3.09177
LeftLeg  16.4255 -8.1756 -1.11517
LeftFoot  -21.3166 0.913071 8.99957
LeftToes  2.58842e-009 -1.78069e-010 3.24654e-012
748
root  -4.85271 38.1445 26.2944 167.677 79.1045 175.82
RightUpLeg  -14.4688 -3.86239 -6.83331
RightLeg  11.2329 11.2674 1.15469
RightFoot  8.40997 -1.48313 8.79381
RightToes  5.82063e-011 0 -3.6325e-017
Spine  9.15073 -1.15676 4.75458
Spine1  7.74138 -0.469548 -2.47079
HEad  -53.1322 29.8977 -50.3013
LeftShoulder1  0.421176 2.31589 -29.3398
LeftArm  8.30228 2.06245 -46.445
LeftForeArm  12.8583 -23.5096 -4.36617
LeftHand  -0.0604241 2.05277 1.75624
RightShoulder  -0.415032 -4.78219 25.5407
RightArm  12.7098 -6.12253 47.0856
RightForeArm  7.31686 13.0868 5.74634
RightHand  -0.127934 1.00724 -2.35847
LeftUpLeg  18.0817 -2.21818 -2.76598
LeftLeg  18.4358 -4.34739 -0.650654
LeftFoot  -22.8222 0.832056 6.90533
LeftToes  2.58842e-009 -1.78069e-010 3.24654e-012
749
root  -3.51547 38.0938 26.3621 174.084 78.6293 -177.717
RightUpLeg  -15.1252 -2.60948 -5.94696
RightLeg  16.9178 9.44183 2.98207
RightFoot  5.90093 -0.859431 5.94311
RightToes  5.82063e-011 0 -3.6325e-017
Spine  9.34471 -1.58828 7.84956
Spine1  7.49174 -0.366356 -3.70747
HEad  -54.8295 28.6748 -50.8266
LeftShoulder1  0.385457 2.42984 -29.7807
LeftArm  8.63151 3.15228 -45.82
LeftForeArm  13.0335 -22.8909 -4.34462
LeftHand  -0.0562779 1.89147 1.54678
RightShoulder  -0.41437 -4.77359 25.6964
RightArm  11.8842 -5.81937 47.2971
RightForeArm  7.50429 11.664 5.9916
RightHand  -0.269963 2.03485 -4.4536
LeftUpLeg  18.6315 -5.25588 -2.06377
LeftLeg  21.5166 -2.08499 -0.643249
LeftFoot  -22.2657 0.469818 3.46085
LeftToes  2.58842e-009 -1.78069e-010 3.24654e-012
750
root  -2.27225 38.1822 26.5887 175.724 77.4222 -177.193
RightUpLeg  -15.713 -2.24999 -5.30129
RightLeg  19.9513 7.68877 2.89146
RightFoot  3.4781 -0.594412 4.75442
RightToes  5.82063e-011 0 -3.6325e-017
Spine  8.15775 -1.38113 6.96325
Spine1  7.8376 -0.654768 -1.15649
HEad  -56.001 27.0671 -51.5378
LeftShoulder1  0.394521 2.41084 -30.0417
LeftArm  8.3753 4.44442 -45.8445
LeftForeArm  13.4217 -21.2647 -4.65134
LeftHand  -0.0526199 2.47353 1.57908
RightShoulder  -0.413602 -4.77417 25.5923
RightArm  11.3455 -5.08475 47.4288
RightForeArm  7.44763 9.88807 6.29194
RightHand  -0.267904 1.06881 -4.9259
LeftUpLeg  16.4784 -5.43283 -0.632298
LeftLeg  26.1605 -3.19421 -1.39327
LeftFoot  -19.2521 0.0377716 -1.28976
LeftToes  2.58842e-009 -1.78069e-010 3.24654e-012
751
root  -1.14604 38.3761 26.7297 177.756 74.8652 -176.342
RightUpLeg  -15.1943 -3.24663 -4.79045
RightLeg  20.8994 6.21086 2.39747
RightFoot  1.45015 -0.413583 3.77941
RightToes  5.82063e-011 0 -3.6325e-017
Spine  7.33873 -1.80286 7.51735
Spine1  7.36883 -0.994094 -0.420819
HEad  -55.9177 25.5544 -50.9211
LeftShoulder1  0.484078 2.13458 -29.2281
LeftArm  7.51345 5.81214 -46.5002
LeftForeArm  14.6915 -18.9274 -5.56338
LeftHand  -0.0735892 2.55112 2.48212
RightShoulder  -0.474315 -4.93891 26.1835
RightArm  10.6308 -5.48347 47.0229
RightForeArm  7.78116 9.59878 6.08032
RightHand  -0.254874 1.11286 -4.67045
LeftUpLeg  11.929 -5.01991 1.48557
LeftLeg  33.3628 -4.00403 -2.47274
LeftFoot  -12.683 0.0203417 -4.1362
LeftToes  2.58842e-009 -1.78069e-010 3.24654e-012
752
root  -0.0686688 38.6124 26.7909 178.428 72.1173 -177.067
RightUpLeg  -14.2857 -5.96741 -4.69202
RightLeg  20.7207 6.07455 2.27709
RightFoot  -0.321294 -0.309116 3.18739
RightToes  5.82063e-011 0 -3.6325e-017
Spine  5.99088 -1.89248 7.50222
Spine1  7.3281 -1.32743 0.676696
HEad  -55.6548 23.4226 -50.8022
LeftShoulder1  0.47665 2.1766 -29.803
LeftArm  7.49491 6.27638 -46.2976
LeftForeArm  17.4207 -17.5422 -6.27603
LeftHand  -0.0347869 3.4093 0.946139
RightShoulder  -0.399886 -4.75008 25.1462
RightArm  10.6818 -6.31391 47.3434
RightForeArm  6.56672 10.03 6.04529
RightHand  -0.294233 1.07839 -5.4018
LeftUpLeg  6.06588 -4.45786 2.59469
LeftLeg  40.9011 -2.53765 -1.9154
LeftFoot  -2.98169 0.241985 -3.45317
LeftToes  2.58842e-009 -1.78069e-010 3.24654e-012
753
root  0.892691 38.8125 26.8359 178.869 69.1876 -177.657
RightUpLeg  -13.0511 -9.16492 -4.7247
RightLeg  20.327 6.23968 2.34419
RightFoot  -1.74982 -0.250575 2.83992
RightToes  5.82063e-011 0 -3.6325e-017
Spine  4.75728 -1.88829 8.30849
Spine1  8.14771 -1.22101 0.726976
HEad  -54.9714 20.0385 -50.311
LeftShoulder1  0.515856 2.06232 -29.6825
LeftArm  8.42125 6.72603 -46.4497
LeftForeArm  19.4329 -17.774 -6.16834
LeftHand  -0.00436853 3.62979 -0.987726
RightShoulder  -0.413762 -4.80836 24.7724
RightArm  11.9777 -6.78585 46.9374
RightForeArm  5.31211 11.636 6.04788
RightHand  -0.244958 1.23609 -4.42694
LeftUpLeg  0.354589 -3.53006 3.18553
LeftLeg  47.509 0.555211 1.08022
LeftFoot  4.07803 0.144655 -1.14032
LeftToes  2.58842e-009 -1.78069e-010 3.24654e-012
